<?xml version="1.0" encoding="utf-8"?>
<!-- Generator: Adobe Illustrator 22.0.1, SVG Export Plug-In . SVG Version: 6.00 Build 0)  -->
<svg version="1.1" id="Layer_1" xmlns="http://www.w3.org/2000/svg" xmlns:xlink="http://www.w3.org/1999/xlink" x="0px" y="0px"
	 viewBox="0 0 1000 1000" style="enable-background:new 0 0 1000 1000;" xml:space="preserve">
<style type="text/css">
	.st0{fill:#F4F4F4;}
	.st1{fill:#C6C6C6;}
</style>
<rect class="st0" width="1000" height="1000"/>
<path class="st1" d="M579.5,423.7H420.5c-5.3,0-9.5,4.3-9.5,9.5v133.5c0,5.3,4.3,9.5,9.5,9.5h158.9c5.3,0,9.5-4.3,9.5-9.5V433.3
	C589,428,584.7,423.7,579.5,423.7z M530,449.2c10.5-1,19.8,6.8,20.7,17.3c1,10.5-6.8,19.8-17.3,20.7c-10.5,1-19.8-6.8-20.7-17.3
	c-0.1-1.2-0.1-2.3,0-3.5C513.6,457.3,520.9,450.1,530,449.2z M428.5,563.6c-2.6,0-4.8-2.1-4.8-4.8V524l51.1-45.4l38.5,38.4
	l-46.6,46.6H428.5z M576.3,558.8c0,2.6-2.1,4.8-4.8,4.8h-86.8l59.4-59.4l32.1,26.8V558.8z"/>
</svg>
