<svg xmlns="http://www.w3.org/2000/svg" viewBox="0 0 229.3 99.06">
  <defs>
    <style>
      .cls-1 {
        fill: #558794;
      }
    </style>
  </defs>
  <title>Asset 12</title>
  <g id="Layer_2" data-name="Layer 2">
    <g id="Layer_1-2" data-name="Layer 1">
      <path class="cls-1" d="M7.16,99.06A21.56,21.56,0,0,1,25.77,61.85c0-1.38-.05-12.88,9.3-20.3A25.53,25.53,0,0,1,62.14,39c-.45-2.26-1.94-11.16,3.38-18.61,6.41-9,20.14-12.26,33-6.77.51-.93,7-12.32,20.3-13.53a26.1,26.1,0,0,1,24.53,12.69c9.51-4.15,20.26-2.43,27.06,4.23,7.36,7.2,6.87,17,6.77,18.61a24.18,24.18,0,0,1,17.76,6.76c7.91,7.85,6.92,18.17,6.77,19.46,13.23-1.11,24.53,6.63,27.06,16.91,2.44,9.88-4.14,18.31-5.07,19.46Z"/>
    </g>
  </g>
</svg>
