<svg xmlns="http://www.w3.org/2000/svg" viewBox="0 0 215.59 104.86">
  <defs>
    <style>
      .cls-1 {
        fill: #3a677c;
      }
    </style>
  </defs>
  <title>Asset 6</title>
  <g id="Layer_2" data-name="Layer 2">
    <g id="Layer_1-2" data-name="Layer 1">
      <path class="cls-1" d="M24.72,45.92C26.07,36.65,31,29.2,37.63,27c1.62-.54,6.95-2.33,11.72.3a11.6,11.6,0,0,1,2.7,2.1c.28-1.89,2.76-17,16.82-24.93,1.49-.84,16.9-9.22,31.84-.6,13,7.47,15.09,21.67,15.32,23.43,2.29-5.15,6.94-8.72,12-9,7-.4,13.92,5.4,15,13.82,3.6-15.48,19.8-23.45,32.14-18.63,11,4.31,17.65,18.31,12.91,31.54,5.84-6,15.11-6.79,21.33-2.1A15.63,15.63,0,0,1,198,70.85a11.75,11.75,0,0,1-2.41,6.31c-4.23,5.31-13.86,6.38-23.73,2.1a42.68,42.68,0,0,1-14.11,17.42c-2.37,1.68-18,12.79-34.25,6-9-3.76-13.71-11.18-15.62-14.72-1.67,2.56-5.13,6.92-10.81,8.71-9.48,3-21.41-2.37-28.54-13.82A24.92,24.92,0,0,1,25,69.65a9.57,9.57,0,0,1-3.91,3c-7,2.8-19.86-3.19-21-13.52C-.84,50.92,5.87,42.27,13.9,41.71,19.36,41.33,23.5,44.81,24.72,45.92Z"/>
    </g>
  </g>
</svg>
