<svg xmlns="http://www.w3.org/2000/svg" viewBox="0 0 227.88 131">
  <defs>
    <style>
      .cls-1 {
        fill: #60929b;
      }
    </style>
  </defs>
  <title>Asset 14</title>
  <g id="Layer_2" data-name="Layer 2">
    <g id="Layer_1-2" data-name="Layer 1">
      <path class="cls-1" d="M105.73,14.74A45.49,45.49,0,0,1,183.54,35c15-5.9,31.87-.28,39.75,12.68,7.3,12,6.11,29-5.07,38.91-8.93,7.94-22.3,9.65-33.83,4.23a43.45,43.45,0,0,1-78.66,22C90.87,125,71.27,126.78,57.52,117.93,45.37,110.11,42.16,96.8,41.44,93.4,18.42,97-.07,79.48,0,63,.07,47,17.48,30.12,39.75,32.5,40.92,30.21,50.54,12.13,71.89,8,89.44,4.55,102.88,12.88,105.73,14.74Z"/>
    </g>
  </g>
</svg>
