<svg xmlns="http://www.w3.org/2000/svg" viewBox="0 0 218.66 111.6">
  <defs>
    <style>
      .cls-1 {
        fill: #fed0b9;
      }
    </style>
  </defs>
  <title>Asset 8</title>
  <g id="Layer_2" data-name="Layer 2">
    <g id="Layer_1-2" data-name="Layer 1">
      <path class="cls-1" d="M14,111.6C3.73,105.6-1.67,94,.46,82.85c2.43-12.67,14.19-22.2,27.91-22,.31-20.7,11.81-38,27.91-43.13,11.49-3.67,22-.08,26.22,1.69C93.66,3.59,113.2-3.48,130.72,1.65,153.44,8.3,160,31.74,160.32,32.94c.87-.3,16.71-5.53,29.6,5.08,11.21,9.22,11.05,22.88,11,24.53,1.45.62,13.56,6.06,16.91,19.45,2.69,10.7-1.28,22.25-10.15,29.6Z"/>
    </g>
  </g>
</svg>
