<svg xmlns="http://www.w3.org/2000/svg" viewBox="0 0 220.12 117.27">
  <defs>
    <style>
      .cls-1 {
        fill: #d8a29c;
      }
    </style>
  </defs>
  <title>Asset 11</title>
  <g id="Layer_2" data-name="Layer 2">
    <g id="Layer_1-2" data-name="Layer 1">
      <path class="cls-1" d="M33.18,79.57c-20.85-.91-35-18.92-33-34.67,2.11-16.53,22-30.76,43.14-24.53,3.11-3.08,13.22-12.3,28.75-13.54A44.81,44.81,0,0,1,90.69,9.37c.6-.92,5.67-8.5,15.23-9.3a20.37,20.37,0,0,1,18.61,9.3c2.64-.79,26-7.33,45.67,7.61A50.26,50.26,0,0,1,188,44.05c19.56,2.65,32.77,18.51,32.14,33-.75,17.18-21.06,34.1-44.83,28.75-9.6,9.77-23,13.79-34.67,10.15a31.91,31.91,0,0,1-16.07-11.84c-5.37,8.22-15.16,11.93-23.69,9.31C90.7,110.28,87.53,99.81,87.31,99c-.61.56-14.06,12.7-31.3,7.61A32.61,32.61,0,0,1,33.18,79.57Z"/>
    </g>
  </g>
</svg>
